# xmcd CD database file
#
# Track frame offsets:
#	150
#	14776
#	37282
#	54061
#	62669
#	73378
#	79349
#	91552
#	97670
#	112133
#	119684
#	129023
#	134630
#	143645
#	149657
#	161440
#	166171
#	175533
#	183481
#	188813
#	193813
#	202108
#	209257
#	211891
#	217703
#	224660
#	231919
#	236493
#	240949
#	251734
#	262363
#
# Disc length: 3568 seconds
#
# Revision: 0
# Processed by: cddbd v1.5.2PL0 Copyright (c) Steve Scherf et al.
# Submitted via: CDex 1.51
#
DISCID=d80dee1f
DTITLE=Tomaso Albinoni - Vespetta e Pimpimone - Balleti a cinque (Pàl Németh, Savaria Baroque Orchestra)
DYEAR=1900
DGENRE=Classique
TTITLE0=Vespetta e Pimpimone - Intermezzo primo - Aria (Vespetta)
TTITLE1=Vespetta e Pimpimone - Intermezzo primo - Recitativo
TTITLE2=Vespetta e Pimpimone - Intermezzo primo - Duetto
TTITLE3=Vespetta e Pimpimone - Intermezzo secondo - Recitativo
TTITLE4=Vespetta e Pimpimone - Intermezzo secondo - Aria (Pinpinone)
TTITLE5=Vespetta e Pimpimone - Intermezzo secondo - Recitativo
TTITLE6=Vespetta e Pimpimone - Intermezzo secondo - Aria (Vespetta)
TTITLE7=Vespetta e Pimpimone - Intermezzo secondo - Recitativo
TTITLE8=Vespetta e Pimpimone - Intermezzo secondo - Duetto
TTITLE9=Vespetta e Pimpimone - Intermezzo Terzo - Recitativo
TTITLE10=Vespetta e Pimpimone - Intermezzo Terzo - Aria (Pinpinome)
TTITLE11=Vespetta e Pimpimone - Intermezzo Terzo - Recitativo
TTITLE12=Vespetta e Pimpimone - Intermezzo Terzo - Aria (Vespetta)
TTITLE13=Vespetta e Pimpimone - Intermezzo Terzo - Recitativo
TTITLE14=Vespetta e Pimpimone - Intermezzo Terzo - Duetto
TTITLE15=Balleti a cinque - Introduzione Prima - Adagio
TTITLE16=Balleti a cinque - Introduzione Prima - Allemanda
TTITLE17=Balleti a cinque - Introduzione Prima - Giga
TTITLE18=Balleti a cinque - Introduzione Prima - Gavotta - Presto
TTITLE19=Balleti a cinque - Introduzione Seconda - Grave
TTITLE20=Balleti a cinque - Introduzione Seconda - Allemanda - Allegro
TTITLE21=Balleti a cinque - Introduzione Seconda - Corrente - Allegro
TTITLE22=Balleti a cinque - Introduzione Seconda - Sarrabanda - Presto
TTITLE23=Balleti a cinque - Introduzione Terza - Adagio
TTITLE24=Balleti a cinque - Introduzione Terza - Allemanda - Allegro
TTITLE25=Balleti a cinque - Introduzione Terza - Giga
TTITLE26=Balleti a cinque - Introduzione Terza - Gavota - Presto
TTITLE27=Balleti a cinque - Introduzione Quarta - Adagio
TTITLE28=Balleti a cinque - Introduzione Quarta - Allemanda - Allegro
TTITLE29=Balleti a cinque - Introduzione Quarta - Corrente
TTITLE30=Balleti a cinque - Introduzione Quarta - Sarrabanda - Presto
EXTD=
EXTT0=
EXTT1=
EXTT2=
EXTT3=
EXTT4=
EXTT5=
EXTT6=
EXTT7=
EXTT8=
EXTT9=
EXTT10=
EXTT11=
EXTT12=
EXTT13=
EXTT14=
EXTT15=
EXTT16=
EXTT17=
EXTT18=
EXTT19=
EXTT20=
EXTT21=
EXTT22=
EXTT23=
EXTT24=
EXTT25=
EXTT26=
EXTT27=
EXTT28=
EXTT29=
EXTT30=
PLAYORDER=
